<?xml version="1.0" standalone="yes"?>

<svg version="1.1" viewBox="0.0 0.0 655.0 402.0" fill="none" stroke="none" stroke-linecap="square" stroke-miterlimit="10" xmlns="http://www.w3.org/2000/svg" xmlns:xlink="http://www.w3.org/1999/xlink"><clipPath id="p.0"><path d="m0 0l655.0 0l0 402.0l-655.0 0l0 -402.0z" clip-rule="nonzero"></path></clipPath><g clip-path="url(#p.0)"><path fill="#000000" fill-opacity="0.0" d="m0 0l655.90814 0l0 402.95538l-655.90814 0z" fill-rule="nonzero"></path><path fill="#a4c2f4" d="m0 327.937l655.2441 0l0 73.98425l-655.2441 0z" fill-rule="nonzero"></path><path fill="#ffffff" d="m279.42673 353.8054l7.109375 0q4.859375 0 7.046875 1.390625q2.203125 1.375 2.203125 4.390625q0 2.046875 -0.96875 3.359375q-0.953125 1.3125 -2.546875 1.578125l0 0.15625q2.171875 0.484375 3.125 1.8125q0.96875 1.328125 0.96875 3.53125q0 3.125 -2.265625 4.875q-2.25 1.75 -6.125 1.75l-8.546875 0l0 -22.84375zm4.84375 9.046875l2.8125 0q1.96875 0 2.84375 -0.609375q0.890625 -0.609375 0.890625 -2.015625q0 -1.3125 -0.96875 -1.875q-0.953125 -0.578125 -3.03125 -0.578125l-2.546875 0l0 5.078125zm0 3.84375l0 5.953125l3.15625 0q2.0 0 2.953125 -0.765625q0.953125 -0.765625 0.953125 -2.34375q0 -2.84375 -4.0625 -2.84375l-3.0 0zm20.078125 1.1875q0 2.59375 0.84375 3.921875q0.859375 1.328125 2.78125 1.328125q1.90625 0 2.734375 -1.3125q0.84375 -1.328125 0.84375 -3.9375q0 -2.59375 -0.84375 -3.890625q-0.84375 -1.296875 -2.765625 -1.296875q-1.90625 0 -2.75 1.296875q-0.84375 1.28125 -0.84375 3.890625zm12.078125 0q0 4.265625 -2.25 6.671875q-2.25 2.40625 -6.265625 2.40625q-2.515625 0 -4.4375 -1.09375q-1.921875 -1.109375 -2.953125 -3.171875q-1.03125 -2.0625 -1.03125 -4.8125q0 -4.28125 2.234375 -6.65625q2.234375 -2.375 6.28125 -2.375q2.515625 0 4.4375 1.09375q1.921875 1.09375 2.953125 3.140625q1.03125 2.046875 1.03125 4.796875zm18.296875 8.765625l-1.34375 -6.109375l-1.8125 -7.71875l-0.109375 0l-3.1875 13.828125l-5.125 0l-4.96875 -17.46875l4.75 0l2.015625 7.734375q0.484375 2.078125 0.984375 5.734375l0.09375 0q0.0625 -1.1875 0.546875 -3.765625l0.25 -1.328125l2.15625 -8.375l5.25 0l2.046875 8.375q0.0625 0.34375 0.1875 1.015625q0.140625 0.671875 0.265625 1.4375q0.125 0.75 0.21875 1.484375q0.109375 0.71875 0.125 1.15625l0.09375 0q0.140625 -1.125 0.5 -3.078125q0.359375 -1.96875 0.515625 -2.65625l2.09375 -7.734375l4.671875 0l-5.03125 17.46875l-5.1875 0zm20.265625 -14.40625q-1.515625 0 -2.375 0.96875q-0.859375 0.953125 -0.984375 2.71875l6.6875 0q-0.03125 -1.765625 -0.921875 -2.71875q-0.890625 -0.96875 -2.40625 -0.96875zm0.671875 14.71875q-4.21875 0 -6.59375 -2.328125q-2.375 -2.328125 -2.375 -6.59375q0 -4.390625 2.1875 -6.78125q2.203125 -2.40625 6.078125 -2.40625q3.703125 0 5.765625 2.109375q2.0625 2.109375 2.0625 5.828125l0 2.3125l-11.265625 0q0.078125 2.03125 1.203125 3.171875q1.125 1.140625 3.15625 1.140625q1.578125 0 2.984375 -0.328125q1.40625 -0.328125 2.9375 -1.046875l0 3.6875q-1.25 0.625 -2.671875 0.921875q-1.421875 0.3125 -3.46875 0.3125zm20.75 -18.109375q0.96875 0 1.609375 0.140625l-0.359375 4.46875q-0.578125 -0.15625 -1.40625 -0.15625q-2.28125 0 -3.5625 1.171875q-1.265625 1.171875 -1.265625 3.28125l0 8.890625l-4.765625 0l0 -17.46875l3.609375 0l0.703125 2.9375l0.234375 0q0.8125 -1.46875 2.1875 -2.359375q1.390625 -0.90625 3.015625 -0.90625z" fill-rule="nonzero"></path><path fill="#b6d7a8" d="m0 163.9685l322.83466 0l0 73.98425l-322.83466 0z" fill-rule="nonzero"></path><path fill="#ffffff" d="m87.940765 193.54001q-2.734375 0 -4.234375 2.0625q-1.5 2.046875 -1.5 5.71875q0 7.640625 5.734375 7.640625q2.40625 0 5.828125 -1.203125l0 4.0625q-2.8125 1.171875 -6.28125 1.171875q-4.984375 0 -7.625 -3.015625q-2.640625 -3.03125 -2.640625 -8.6875q0 -3.5625 1.296875 -6.234375q1.296875 -2.6875 3.71875 -4.109375q2.4375 -1.4375 5.703125 -1.4375q3.328125 0 6.6875 1.609375l-1.5625 3.9375q-1.28125 -0.609375 -2.578125 -1.0625q-1.296875 -0.453125 -2.546875 -0.453125zm14.109375 10.375q0 2.59375 0.84375 3.921875q0.859375 1.328125 2.78125 1.328125q1.90625 0 2.734375 -1.3125q0.84375 -1.328125 0.84375 -3.9375q0 -2.59375 -0.84375 -3.890625q-0.84375 -1.296875 -2.765625 -1.296875q-1.90625 0 -2.75 1.296875q-0.84375 1.28125 -0.84375 3.890625zm12.078125 0q0 4.265625 -2.25 6.671875q-2.25 2.40625 -6.265625 2.40625q-2.515625 0 -4.4375 -1.09375q-1.921875 -1.109375 -2.953125 -3.171875q-1.03125 -2.0625 -1.03125 -4.8125q0 -4.28125 2.234375 -6.65625q2.234375 -2.375 6.28125 -2.375q2.515625 0 4.4375 1.09375q1.921875 1.09375 2.953125 3.140625q1.03125 2.046875 1.03125 4.796875zm19.578125 8.765625l-4.765625 0l0 -10.203125q0 -1.890625 -0.640625 -2.828125q-0.625 -0.953125 -1.984375 -0.953125q-1.828125 0 -2.65625 1.34375q-0.828125 1.34375 -0.828125 4.421875l0 8.21875l-4.765625 0l0 -17.46875l3.640625 0l0.640625 2.234375l0.265625 0q0.703125 -1.203125 2.03125 -1.875q1.328125 -0.6875 3.046875 -0.6875q3.921875 0 5.3125 2.5625l0.421875 0q0.703125 -1.21875 2.0625 -1.890625q1.375 -0.671875 3.09375 -0.671875q2.96875 0 4.484375 1.53125q1.53125 1.515625 1.53125 4.875l0 11.390625l-4.78125 0l0 -10.203125q0 -1.890625 -0.640625 -2.828125q-0.625 -0.953125 -1.984375 -0.953125q-1.75 0 -2.625 1.25q-0.859375 1.25 -0.859375 3.96875l0 8.765625zm31.421875 0l-4.765625 0l0 -10.203125q0 -1.890625 -0.640625 -2.828125q-0.625 -0.953125 -1.984375 -0.953125q-1.828125 0 -2.65625 1.34375q-0.828125 1.34375 -0.828125 4.421875l0 8.21875l-4.765625 0l0 -17.46875l3.640625 0l0.640625 2.234375l0.265625 0q0.703125 -1.203125 2.03125 -1.875q1.328125 -0.6875 3.046875 -0.6875q3.921875 0 5.3125 2.5625l0.421875 0q0.703125 -1.21875 2.0625 -1.890625q1.375 -0.671875 3.09375 -0.671875q2.96875 0 4.484375 1.53125q1.53125 1.515625 1.53125 4.875l0 11.390625l-4.78125 0l0 -10.203125q0 -1.890625 -0.640625 -2.828125q-0.625 -0.953125 -1.984375 -0.953125q-1.75 0 -2.625 1.25q-0.859375 1.25 -0.859375 3.96875l0 8.765625zm19.578125 -8.765625q0 2.59375 0.84375 3.921875q0.859375 1.328125 2.78125 1.328125q1.90625 0 2.734375 -1.3125q0.84375 -1.328125 0.84375 -3.9375q0 -2.59375 -0.84375 -3.890625q-0.84375 -1.296875 -2.765625 -1.296875q-1.90625 0 -2.75 1.296875q-0.84375 1.28125 -0.84375 3.890625zm12.078125 0q0 4.265625 -2.25 6.671875q-2.25 2.40625 -6.265625 2.40625q-2.515625 0 -4.4375 -1.09375q-1.921875 -1.109375 -2.953125 -3.171875q-1.03125 -2.0625 -1.03125 -4.8125q0 -4.28125 2.234375 -6.65625q2.234375 -2.375 6.28125 -2.375q2.515625 0 4.4375 1.09375q1.921875 1.09375 2.953125 3.140625q1.03125 2.046875 1.03125 4.796875zm20.0625 8.765625l-4.765625 0l0 -10.203125q0 -1.890625 -0.671875 -2.828125q-0.671875 -0.953125 -2.140625 -0.953125q-2.0 0 -2.890625 1.34375q-0.890625 1.328125 -0.890625 4.421875l0 8.21875l-4.765625 0l0 -17.46875l3.640625 0l0.640625 2.234375l0.265625 0q0.796875 -1.265625 2.1875 -1.90625q1.40625 -0.65625 3.1875 -0.65625q3.046875 0 4.625 1.65625q1.578125 1.640625 1.578125 4.75l0 11.390625zm2.890625 6.71875q-1.640625 0 -2.859375 -0.34375l0 -4.03125q1.25 0.3125 2.28125 0.3125q1.59375 0 2.28125 -1.0q0.6875 -0.984375 0.6875 -3.09375l0 -21.40625l4.84375 0l0 21.375q0 4.0 -1.828125 6.09375q-1.828125 2.09375 -5.40625 2.09375zm26.46875 -13.0625q0 3.09375 -2.234375 4.875q-2.21875 1.78125 -6.1875 1.78125q-3.65625 0 -6.46875 -1.375l0 -4.5q2.3125 1.03125 3.90625 1.453125q1.609375 0.421875 2.9375 0.421875q1.59375 0 2.4375 -0.609375q0.859375 -0.609375 0.859375 -1.8125q0 -0.671875 -0.375 -1.1875q-0.375 -0.53125 -1.109375 -1.015625q-0.71875 -0.484375 -2.953125 -1.546875q-2.09375 -0.984375 -3.140625 -1.890625q-1.046875 -0.90625 -1.671875 -2.109375q-0.625 -1.203125 -0.625 -2.8125q0 -3.03125 2.046875 -4.765625q2.0625 -1.734375 5.6875 -1.734375q1.78125 0 3.390625 0.421875q1.625 0.421875 3.390625 1.1875l-1.5625 3.765625q-1.828125 -0.75 -3.03125 -1.046875q-1.1875 -0.296875 -2.34375 -0.296875q-1.375 0 -2.109375 0.640625q-0.734375 0.640625 -0.734375 1.671875q0 0.640625 0.296875 1.125q0.296875 0.46875 0.9375 0.921875q0.65625 0.4375 3.078125 1.59375q3.203125 1.53125 4.390625 3.078125q1.1875 1.53125 1.1875 3.765625z" fill-rule="nonzero"></path><path fill="#b6d7a8" d="m0 81.98425l322.83466 0l0 73.98425l-322.83466 0z" fill-rule="nonzero"></path><path fill="#ffffff" d="m77.82358 98.85262l7.109375 0q4.859375 0 7.046875 1.390625q2.203125 1.375 2.203125 4.390625q0 2.046875 -0.96875 3.359375q-0.953125 1.3125 -2.546875 1.578125l0 0.15625q2.171875 0.484375 3.125 1.8125q0.96875 1.328125 0.96875 3.53125q0 3.125 -2.265625 4.875q-2.25 1.75 -6.125 1.75l-8.546875 0l0 -22.84375zm4.84375 9.046875l2.8125 0q1.96875 0 2.84375 -0.609375q0.890625 -0.609375 0.890625 -2.015625q0 -1.3125 -0.96875 -1.875q-0.953125 -0.578125 -3.03125 -0.578125l-2.546875 0l0 5.078125zm0 3.84375l0 5.953125l3.15625 0q2.0 0 2.953125 -0.765625q0.953125 -0.765625 0.953125 -2.34375q0 -2.84375 -4.0625 -2.84375l-3.0 0zm26.03125 -7.84375q0.96875 0 1.609375 0.140625l-0.359375 4.46875q-0.578125 -0.15625 -1.40625 -0.15625q-2.28125 0 -3.5625 1.171875q-1.265625 1.171875 -1.265625 3.28125l0 8.890625l-4.765625 0l0 -17.46875l3.609375 0l0.703125 2.9375l0.234375 0q0.8125 -1.46875 2.1875 -2.359375q1.390625 -0.90625 3.015625 -0.90625zm8.578125 9.03125q0 2.59375 0.84375 3.921875q0.859375 1.328125 2.78125 1.328125q1.90625 0 2.734375 -1.3125q0.84375 -1.328125 0.84375 -3.9375q0 -2.59375 -0.84375 -3.890625q-0.84375 -1.296875 -2.765625 -1.296875q-1.90625 0 -2.75 1.296875q-0.84375 1.28125 -0.84375 3.890625zm12.078125 0q0 4.265625 -2.25 6.671875q-2.25 2.40625 -6.265625 2.40625q-2.515625 0 -4.4375 -1.09375q-1.921875 -1.109375 -2.953125 -3.171875q-1.03125 -2.0625 -1.03125 -4.8125q0 -4.28125 2.234375 -6.65625q2.234375 -2.375 6.28125 -2.375q2.515625 0 4.4375 1.09375q1.921875 1.09375 2.953125 3.140625q1.03125 2.046875 1.03125 4.796875zm18.296875 8.765625l-1.34375 -6.109375l-1.8125 -7.71875l-0.109375 0l-3.1875 13.828125l-5.125 0l-4.96875 -17.46875l4.75 0l2.015625 7.734375q0.484375 2.078125 0.984375 5.734375l0.09375 0q0.0625 -1.1875 0.546875 -3.765625l0.25 -1.328125l2.15625 -8.375l5.25 0l2.046875 8.375q0.0625 0.34375 0.1875 1.015625q0.140625 0.671875 0.265625 1.4375q0.125 0.75 0.21875 1.484375q0.109375 0.71875 0.125 1.15625l0.09375 0q0.140625 -1.125 0.5 -3.078125q0.359375 -1.96875 0.515625 -2.65625l2.09375 -7.734375l4.671875 0l-5.03125 17.46875l-5.1875 0zm25.21875 -5.1875q0 2.6875 -1.875 4.09375q-1.859375 1.40625 -5.578125 1.40625q-1.90625 0 -3.25 -0.265625q-1.34375 -0.25 -2.515625 -0.75l0 -3.9375q1.328125 0.625 2.984375 1.046875q1.671875 0.421875 2.9375 0.421875q2.59375 0 2.59375 -1.5q0 -0.5625 -0.34375 -0.90625q-0.34375 -0.359375 -1.1875 -0.796875q-0.84375 -0.453125 -2.25 -1.046875q-2.015625 -0.84375 -2.96875 -1.5625q-0.9375 -0.71875 -1.375 -1.640625q-0.421875 -0.9375 -0.421875 -2.296875q0 -2.328125 1.796875 -3.59375q1.8125 -1.28125 5.125 -1.28125q3.15625 0 6.140625 1.375l-1.4375 3.4375q-1.3125 -0.5625 -2.453125 -0.921875q-1.140625 -0.359375 -2.328125 -0.359375q-2.109375 0 -2.109375 1.140625q0 0.640625 0.671875 1.109375q0.6875 0.46875 2.984375 1.390625q2.046875 0.828125 3.0 1.546875q0.953125 0.71875 1.40625 1.65625q0.453125 0.9375 0.453125 2.234375zm10.953125 -9.21875q-1.515625 0 -2.375 0.96875q-0.859375 0.953125 -0.984375 2.71875l6.6875 0q-0.03125 -1.765625 -0.921875 -2.71875q-0.890625 -0.96875 -2.40625 -0.96875zm0.671875 14.71875q-4.21875 0 -6.59375 -2.328125q-2.375 -2.328125 -2.375 -6.59375q0 -4.390625 2.1875 -6.78125q2.203125 -2.40625 6.078125 -2.40625q3.703125 0 5.765625 2.109375q2.0625 2.109375 2.0625 5.828125l0 2.3125l-11.265625 0q0.078125 2.03125 1.203125 3.171875q1.125 1.140625 3.15625 1.140625q1.578125 0 2.984375 -0.328125q1.40625 -0.328125 2.9375 -1.046875l0 3.6875q-1.25 0.625 -2.671875 0.921875q-1.421875 0.3125 -3.46875 0.3125zm20.75 -18.109375q0.96875 0 1.609375 0.140625l-0.359375 4.46875q-0.578125 -0.15625 -1.40625 -0.15625q-2.28125 0 -3.5625 1.171875q-1.265625 1.171875 -1.265625 3.28125l0 8.890625l-4.765625 0l0 -17.46875l3.609375 0l0.703125 2.9375l0.234375 0q0.8125 -1.46875 2.1875 -2.359375q1.390625 -0.90625 3.015625 -0.90625zm4.578125 -4.1875q0 -2.328125 2.59375 -2.328125q2.59375 0 2.59375 2.328125q0 1.109375 -0.65625 1.734375q-0.640625 0.609375 -1.9375 0.609375q-2.59375 0 -2.59375 -2.34375zm4.96875 21.984375l-4.765625 0l0 -17.46875l4.765625 0l0 17.46875zm14.65625 -13.890625l-4.125 0l0 13.890625l-4.765625 0l0 -13.890625l-2.625 0l0 -2.296875l2.625 -1.28125l0 -1.28125q0 -2.984375 1.46875 -4.359375q1.46875 -1.375 4.703125 -1.375q2.46875 0 4.390625 0.734375l-1.21875 3.5q-1.4375 -0.453125 -2.65625 -0.453125q-1.015625 0 -1.46875 0.609375q-0.453125 0.59375 -0.453125 1.53125l0 1.09375l4.125 0l0 3.578125zm0.234375 -3.578125l5.21875 0l3.296875 9.828125q0.421875 1.28125 0.578125 3.03125l0.09375 0q0.171875 -1.609375 0.671875 -3.03125l3.234375 -9.828125l5.109375 0l-7.390625 19.703125q-1.015625 2.734375 -2.90625 4.0937576q-1.875 1.359375 -4.390625 1.359375q-1.234375 0 -2.421875 -0.265625l0 -3.7812576q0.859375 0.203125 1.875 0.203125q1.265625 0 2.203125 -0.78125q0.953125 -0.765625 1.484375 -2.328125l0.28125 -0.859375l-6.9375 -17.34375z" fill-rule="nonzero"></path><path fill="#ffffff" d="m101.03981 137.2595l3.015625 0l0 1.015625l-3.015625 0l0 3.125l-1.015625 0l0 -3.125l-3.0 0l0 -1.015625l3.0 0l0 -3.125l1.015625 0l0 3.125zm10.348862 4.71875l-0.0625 0q-0.84375 1.21875 -2.515625 1.21875q-1.578125 0 -2.453125 -1.0625q-0.875 -1.078125 -0.875 -3.0625q0 -2.0 0.875 -3.09375q0.875 -1.09375 2.453125 -1.09375q1.625 0 2.5 1.1875l0.09375 0l-0.046875 -0.578125l-0.03125 -0.5625l0 -3.265625l1.21875 0l0 11.390625l-0.984375 0l-0.171875 -1.078125zm-2.421875 0.203125q1.234375 0 1.796875 -0.671875q0.5625 -0.6875 0.5625 -2.1875l0 -0.25q0 -1.71875 -0.578125 -2.4375q-0.5625 -0.734375 -1.796875 -0.734375q-1.078125 0 -1.640625 0.828125q-0.5625 0.828125 -0.5625 2.34375q0 1.546875 0.5625 2.328125q0.5625 0.78125 1.65625 0.78125zm9.340622 1.015625q-1.78125 0 -2.8125 -1.078125q-1.03125 -1.078125 -1.03125 -3.015625q0 -1.9375 0.953125 -3.078125q0.953125 -1.140625 2.5625 -1.140625q1.515625 0 2.390625 1.0q0.875 0.984375 0.875 2.609375l0 0.765625l-5.515625 0q0.03125 1.421875 0.703125 2.15625q0.6875 0.71875 1.90625 0.71875q1.296875 0 2.5625 -0.53125l0 1.078125q-0.640625 0.28125 -1.21875 0.390625q-0.5625 0.125 -1.375 0.125zm-0.34375 -7.296875q-0.953125 0 -1.53125 0.640625q-0.578125 0.625 -0.6875 1.734375l4.203125 0q0 -1.15625 -0.515625 -1.765625q-0.515625 -0.609375 -1.46875 -0.609375zm8.9101715 -1.0q1.578125 0 2.453125 1.078125q0.875 1.078125 0.875 3.0625q0 1.96875 -0.890625 3.0625q-0.875 1.09375 -2.4375 1.09375q-0.796875 0 -1.453125 -0.28125q-0.640625 -0.296875 -1.078125 -0.890625l-0.078125 0l-0.265625 1.03125l-0.859375 0l0 -11.390625l1.203125 0l0 2.765625q0 0.921875 -0.046875 1.671875l0.046875 0q0.859375 -1.203125 2.53125 -1.203125zm-0.1875 1.015625q-1.234375 0 -1.796875 0.71875q-0.546875 0.703125 -0.546875 2.40625q0 1.6875 0.5625 2.421875q0.578125 0.71875 1.8125 0.71875q1.125 0 1.671875 -0.8125q0.546875 -0.8125 0.546875 -2.34375q0 -1.578125 -0.546875 -2.34375q-0.546875 -0.765625 -1.703125 -0.765625zm12.356247 3.125q0 1.953125 -1.0 3.0625q-0.984375 1.09375 -2.71875 1.09375q-1.078125 0 -1.921875 -0.5q-0.828125 -0.5 -1.28125 -1.4375q-0.453125 -0.953125 -0.453125 -2.21875q0 -1.96875 0.984375 -3.0625q0.984375 -1.09375 2.71875 -1.09375q1.6875 0 2.671875 1.125q1.0 1.109375 1.0 3.03125zm-6.109375 0q0 1.53125 0.609375 2.34375q0.609375 0.796875 1.8125 0.796875q1.1875 0 1.796875 -0.796875q0.625 -0.796875 0.625 -2.34375q0 -1.53125 -0.625 -2.328125q-0.609375 -0.796875 -1.8125 -0.796875q-1.203125 0 -1.8125 0.78125q-0.59375 0.78125 -0.59375 2.34375zm14.586807 4.015625l-1.46875 -4.703125q-0.140625 -0.4375 -0.515625 -1.96875l-0.0625 0q-0.296875 1.28125 -0.515625 1.984375l-1.515625 4.6875l-1.40625 0l-2.1875 -8.03125l1.265625 0q0.78125 3.03125 1.1875 4.609375q0.40625 1.578125 0.46875 2.125l0.0625 0q0.078125 -0.40625 0.25 -1.0625q0.1875 -0.671875 0.3125 -1.0625l1.46875 -4.609375l1.328125 0l1.4375 4.609375q0.40625 1.265625 0.546875 2.125l0.0625 0q0.03125 -0.265625 0.15625 -0.8125q0.125 -0.5625 1.53125 -5.921875l1.25 0l-2.21875 8.03125l-1.4375 0zm8.243851 0.140625q-1.78125 0 -2.8125 -1.078125q-1.03125 -1.078125 -1.03125 -3.015625q0 -1.9375 0.953125 -3.078125q0.953125 -1.140625 2.5625 -1.140625q1.515625 0 2.390625 1.0q0.875 0.984375 0.875 2.609375l0 0.765625l-5.515625 0q0.03125 1.421875 0.703125 2.15625q0.6875 0.71875 1.90625 0.71875q1.296875 0 2.5625 -0.53125l0 1.078125q-0.640625 0.28125 -1.21875 0.390625q-0.5625 0.125 -1.375 0.125zm-0.34375 -7.296875q-0.953125 0 -1.53125 0.640625q-0.578125 0.625 -0.6875 1.734375l4.203125 0q0 -1.15625 -0.515625 -1.765625q-0.515625 -0.609375 -1.46875 -0.609375zm8.8320465 -1.015625q0.53125 0 0.953125 0.078125l-0.15625 1.140625q-0.5 -0.109375 -0.890625 -0.109375q-0.96875 0 -1.671875 0.796875q-0.6875 0.78125 -0.6875 1.953125l0 4.3125l-1.203125 0l0 -8.03125l1.0 0l0.140625 1.484375l0.046875 0q0.453125 -0.78125 1.078125 -1.203125q0.640625 -0.421875 1.390625 -0.421875zm3.529602 8.171875l-1.203125 0l0 -8.03125l1.203125 0l0 8.03125zm-1.3125 -10.203125q0 -0.421875 0.203125 -0.609375q0.203125 -0.203125 0.515625 -0.203125q0.296875 0 0.5 0.203125q0.21875 0.203125 0.21875 0.609375q0 0.40625 -0.21875 0.609375q-0.203125 0.203125 -0.5 0.203125q-0.3125 0 -0.515625 -0.203125q-0.203125 -0.203125 -0.203125 -0.609375zm7.4257507 3.125l-2.046875 0l0 7.078125l-1.21875 0l0 -7.078125l-1.421875 0l0 -0.546875l1.421875 -0.453125l0 -0.4375q0 -2.96875 2.59375 -2.96875q0.640625 0 1.5 0.265625l-0.328125 0.96875q-0.703125 -0.21875 -1.1875 -0.21875q-0.703125 0 -1.03125 0.453125q-0.328125 0.453125 -0.328125 1.46875l0 0.515625l2.046875 0l0 0.953125zm0.07589722 -0.953125l1.296875 0l1.765625 4.578125q0.578125 1.578125 0.71875 2.265625l0.0625 0q0.09375 -0.375 0.390625 -1.28125q0.3125 -0.90625 1.984375 -5.5625l1.3125 0l-3.453125 9.140625q-0.515625 1.359375 -1.203125 1.921875q-0.671875 0.578125 -1.671875 0.578125q-0.5625 0 -1.09375 -0.125l0 -0.984375q0.390625 0.09375 0.890625 0.09375q1.25 0 1.796875 -1.40625l0.4375 -1.140625l-3.234375 -8.078125zm14.208191 -0.546875q0 0.5 0.265625 0.96875q0.265625 0.453125 0.90625 1.09375q0.9375 -0.546875 1.296875 -1.0q0.375 -0.46875 0.375 -1.078125q0 -0.5625 -0.375 -0.921875q-0.375 -0.359375 -1.0 -0.359375q-0.65625 0 -1.0625 0.359375q-0.40625 0.34375 -0.40625 0.9375zm1.140625 7.640625q1.765625 0 2.921875 -1.140625l-3.203125 -3.09375q-0.8125 0.484375 -1.15625 0.8125q-0.328125 0.328125 -0.484375 0.703125q-0.15625 0.375 -0.15625 0.84375q0 0.859375 0.5625 1.375q0.5625 0.5 1.515625 0.5zm-3.34375 -1.84375q0 -0.953125 0.5 -1.671875q0.515625 -0.734375 1.84375 -1.484375q-0.625 -0.703125 -0.859375 -1.0625q-0.21875 -0.359375 -0.359375 -0.734375q-0.125 -0.390625 -0.125 -0.8125q0 -1.09375 0.71875 -1.703125q0.71875 -0.625 2.0 -0.625q1.1875 0 1.859375 0.609375q0.6875 0.609375 0.6875 1.703125q0 0.78125 -0.5 1.453125q-0.5 0.65625 -1.640625 1.34375l2.984375 2.859375q0.40625 -0.453125 0.640625 -1.0625q0.25 -0.609375 0.421875 -1.34375l1.234375 0q-0.5 2.09375 -1.5 3.1875l2.1875 2.125l-1.671875 0l-1.359375 -1.296875q-0.859375 0.765625 -1.765625 1.109375q-0.890625 0.328125 -1.984375 0.328125q-1.578125 0 -2.453125 -0.765625q-0.859375 -0.78125 -0.859375 -2.15625zm18.709091 -5.375q1.578125 0 2.453125 1.078125q0.875 1.078125 0.875 3.0625q0 1.96875 -0.890625 3.0625q-0.875 1.09375 -2.4375 1.09375q-0.796875 0 -1.453125 -0.28125q-0.640625 -0.296875 -1.078125 -0.890625l-0.078125 0l-0.265625 1.03125l-0.859375 0l0 -11.390625l1.203125 0l0 2.765625q0 0.921875 -0.046875 1.671875l0.046875 0q0.859375 -1.203125 2.53125 -1.203125zm-0.1875 1.015625q-1.234375 0 -1.796875 0.71875q-0.546875 0.703125 -0.546875 2.40625q0 1.6875 0.5625 2.421875q0.578125 0.71875 1.8125 0.71875q1.125 0 1.671875 -0.8125q0.546875 -0.8125 0.546875 -2.34375q0 -1.578125 -0.546875 -2.34375q-0.546875 -0.765625 -1.703125 -0.765625zm9.090622 -1.03125q0.53125 0 0.953125 0.078125l-0.15625 1.140625q-0.5 -0.109375 -0.890625 -0.109375q-0.96875 0 -1.671875 0.796875q-0.6875 0.78125 -0.6875 1.953125l0 4.3125l-1.203125 0l0 -8.03125l1.0 0l0.140625 1.484375l0.046875 0q0.453125 -0.78125 1.078125 -1.203125q0.640625 -0.421875 1.390625 -0.421875zm5.935852 1.09375l-2.046875 0l0 7.078125l-1.21875 0l0 -7.078125l-1.421875 0l0 -0.546875l1.421875 -0.453125l0 -0.4375q0 -2.96875 2.59375 -2.96875q0.640625 0 1.5 0.265625l-0.328125 0.96875q-0.703125 -0.21875 -1.1875 -0.21875q-0.703125 0 -1.03125 0.453125q-0.328125 0.453125 -0.328125 1.46875l0 0.515625l2.046875 0l0 0.953125zm6.529022 4.890625q0 1.125 -0.84375 1.734375q-0.828125 0.59375 -2.34375 0.59375q-1.59375 0 -2.484375 -0.5l0 -1.125q0.578125 0.296875 1.234375 0.46875q0.671875 0.15625 1.28125 0.15625q0.953125 0 1.46875 -0.296875q0.515625 -0.3125 0.515625 -0.9375q0 -0.46875 -0.40625 -0.796875q-0.40625 -0.328125 -1.59375 -0.78125q-1.109375 -0.421875 -1.59375 -0.734375q-0.46875 -0.3125 -0.703125 -0.703125q-0.21875 -0.40625 -0.21875 -0.953125q0 -0.96875 0.796875 -1.53125q0.796875 -0.578125 2.1875 -0.578125q1.296875 0 2.53125 0.53125l-0.4375 0.984375q-1.203125 -0.5 -2.1875 -0.5q-0.859375 0 -1.296875 0.28125q-0.4375 0.265625 -0.4375 0.734375q0 0.328125 0.15625 0.5625q0.171875 0.21875 0.53125 0.421875q0.375 0.203125 1.40625 0.59375q1.4375 0.515625 1.9375 1.046875q0.5 0.53125 0.5 1.328125z" fill-rule="nonzero"></path><path fill="#ea9999" d="m332.40945 0l322.83463 0l0 237.95276l-322.83463 0z" fill-rule="nonzero"></path><path fill="#ffffff" d="m472.7096 124.35263q0 3.09375 -2.234375 4.875q-2.21875 1.78125 -6.1875 1.78125q-3.65625 0 -6.46875 -1.375l0 -4.5q2.3125 1.03125 3.90625 1.453125q1.609375 0.421875 2.9375 0.421875q1.59375 0 2.4375 -0.609375q0.859375 -0.609375 0.859375 -1.8125q0 -0.671875 -0.375 -1.1875q-0.375 -0.53125 -1.109375 -1.015625q-0.71875 -0.484375 -2.953125 -1.546875q-2.09375 -0.984375 -3.140625 -1.890625q-1.046875 -0.90625 -1.671875 -2.109375q-0.625 -1.203125 -0.625 -2.8125q0 -3.03125 2.046875 -4.765625q2.0625 -1.734375 5.6875 -1.734375q1.78125 0 3.390625 0.421875q1.625 0.421875 3.390625 1.1875l-1.5625 3.765625q-1.828125 -0.75 -3.03125 -1.046875q-1.1875 -0.296875 -2.34375 -0.296875q-1.375 0 -2.109375 0.640625q-0.734375 0.640625 -0.734375 1.671875q0 0.640625 0.296875 1.125q0.296875 0.46875 0.9375 0.921875q0.65625 0.4375 3.078125 1.59375q3.203125 1.53125 4.390625 3.078125q1.1875 1.53125 1.1875 3.765625zm18.125 6.34375l-1.65625 -5.4375l-8.328125 0l-1.65625 5.4375l-5.21875 0l8.0625 -22.9375l5.921875 0l8.09375 22.9375l-5.21875 0zm-2.8125 -9.5q-2.296875 -7.390625 -2.59375 -8.359375q-0.28125 -0.96875 -0.40625 -1.53125q-0.515625 2.0 -2.953125 9.890625l5.953125 0zm24.390625 3.15625q0 3.09375 -2.234375 4.875q-2.21875 1.78125 -6.1875 1.78125q-3.65625 0 -6.46875 -1.375l0 -4.5q2.3125 1.03125 3.90625 1.453125q1.609375 0.421875 2.9375 0.421875q1.59375 0 2.4375 -0.609375q0.859375 -0.609375 0.859375 -1.8125q0 -0.671875 -0.375 -1.1875q-0.375 -0.53125 -1.109375 -1.015625q-0.71875 -0.484375 -2.953125 -1.546875q-2.09375 -0.984375 -3.140625 -1.890625q-1.046875 -0.90625 -1.671875 -2.109375q-0.625 -1.203125 -0.625 -2.8125q0 -3.03125 2.046875 -4.765625q2.0625 -1.734375 5.6875 -1.734375q1.78125 0 3.390625 0.421875q1.625 0.421875 3.390625 1.1875l-1.5625 3.765625q-1.828125 -0.75 -3.03125 -1.046875q-1.1875 -0.296875 -2.34375 -0.296875q-1.375 0 -2.109375 0.640625q-0.734375 0.640625 -0.734375 1.671875q0 0.640625 0.296875 1.125q0.296875 0.46875 0.9375 0.921875q0.65625 0.4375 3.078125 1.59375q3.203125 1.53125 4.390625 3.078125q1.1875 1.53125 1.1875 3.765625zm17.625 0q0 3.09375 -2.234375 4.875q-2.21875 1.78125 -6.1875 1.78125q-3.65625 0 -6.46875 -1.375l0 -4.5q2.3125 1.03125 3.90625 1.453125q1.609375 0.421875 2.9375 0.421875q1.59375 0 2.4375 -0.609375q0.859375 -0.609375 0.859375 -1.8125q0 -0.671875 -0.375 -1.1875q-0.375 -0.53125 -1.109375 -1.015625q-0.71875 -0.484375 -2.953125 -1.546875q-2.09375 -0.984375 -3.140625 -1.890625q-1.046875 -0.90625 -1.671875 -2.109375q-0.625 -1.203125 -0.625 -2.8125q0 -3.03125 2.046875 -4.765625q2.0625 -1.734375 5.6875 -1.734375q1.78125 0 3.390625 0.421875q1.625 0.421875 3.390625 1.1875l-1.5625 3.765625q-1.828125 -0.75 -3.03125 -1.046875q-1.1875 -0.296875 -2.34375 -0.296875q-1.375 0 -2.109375 0.640625q-0.734375 0.640625 -0.734375 1.671875q0 0.640625 0.296875 1.125q0.296875 0.46875 0.9375 0.921875q0.65625 0.4375 3.078125 1.59375q3.203125 1.53125 4.390625 3.078125q1.1875 1.53125 1.1875 3.765625z" fill-rule="nonzero"></path><path fill="#b6d7a8" d="m0 0l322.83466 0l0 73.98425l-322.83466 0z" fill-rule="nonzero"></path><path fill="#ffffff" d="m37.245453 29.571503q-2.734375 0 -4.234375 2.0625q-1.5 2.046875 -1.5 5.71875q0 7.640625 5.734375 7.640625q2.40625 0 5.828125 -1.203125l0 4.0625q-2.8125 1.171875 -6.28125 1.171875q-4.984375 0 -7.625 -3.015625q-2.640625 -3.03125 -2.640625 -8.6875q0 -3.5625 1.296875 -6.234375q1.296875 -2.6875 3.71875 -4.109375q2.4375 -1.4375 5.703125 -1.4375q3.328125 0 6.6875 1.609375l-1.5625 3.9375q-1.28125 -0.609375 -2.578125 -1.0625q-1.296875 -0.453125 -2.546875 -0.453125zm15.078125 19.140625l-4.765625 0l0 -24.3125l4.765625 0l0 24.3125zm8.796875 -8.765625q0 2.59375 0.84375 3.921875q0.859375 1.328125 2.78125 1.328125q1.90625 0 2.734375 -1.3125q0.84375 -1.328125 0.84375 -3.9375q0 -2.59375 -0.84375 -3.890625q-0.84375 -1.296875 -2.765625 -1.296875q-1.90625 0 -2.75 1.296875q-0.84375 1.28125 -0.84375 3.890625zm12.078125 0q0 4.265625 -2.25 6.671875q-2.25 2.40625 -6.265625 2.40625q-2.515625 0 -4.4375 -1.09375q-1.921875 -1.109375 -2.953125 -3.171875q-1.03125 -2.0625 -1.03125 -4.8125q0 -4.28125 2.234375 -6.65625q2.234375 -2.375 6.28125 -2.375q2.515625 0 4.4375 1.09375q1.921875 1.09375 2.953125 3.140625q1.03125 2.046875 1.03125 4.796875zm16.125 3.578125q0 2.6875 -1.875 4.09375q-1.859375 1.40625 -5.578125 1.40625q-1.90625 0 -3.25 -0.265625q-1.34375 -0.25 -2.515625 -0.75l0 -3.9375q1.328125 0.625 2.984375 1.046875q1.671875 0.421875 2.9375 0.421875q2.59375 0 2.59375 -1.5q0 -0.5625 -0.34375 -0.90625q-0.34375 -0.359375 -1.1875 -0.796875q-0.84375 -0.453125 -2.25 -1.046875q-2.015625 -0.84375 -2.96875 -1.5625q-0.9375 -0.71875 -1.375 -1.640625q-0.421875 -0.9375 -0.421875 -2.296875q0 -2.328125 1.796875 -3.59375q1.8125 -1.28125 5.125 -1.28125q3.15625 0 6.140625 1.375l-1.4375 3.4375q-1.3125 -0.5625 -2.453125 -0.921875q-1.140625 -0.359375 -2.328125 -0.359375q-2.109375 0 -2.109375 1.140625q0 0.640625 0.671875 1.109375q0.6875 0.46875 2.984375 1.390625q2.046875 0.828125 3.0 1.546875q0.953125 0.71875 1.40625 1.65625q0.453125 0.9375 0.453125 2.234375zm16.09375 5.1875l-0.640625 -2.234375l-0.25 0q-0.765625 1.21875 -2.171875 1.890625q-1.40625 0.65625 -3.203125 0.65625q-3.078125 0 -4.640625 -1.640625q-1.5625 -1.65625 -1.5625 -4.75l0 -11.390625l4.765625 0l0 10.203125q0 1.890625 0.671875 2.84375q0.671875 0.9375 2.140625 0.9375q2.0 0 2.890625 -1.328125q0.890625 -1.34375 0.890625 -4.4375l0 -8.21875l4.765625 0l0 17.46875l-3.65625 0zm18.40625 -17.796875q0.96875 0 1.609375 0.140625l-0.359375 4.46875q-0.578125 -0.15625 -1.40625 -0.15625q-2.28125 0 -3.5625 1.171875q-1.265625 1.171875 -1.265625 3.28125l0 8.890625l-4.765625 0l0 -17.46875l3.609375 0l0.703125 2.9375l0.234375 0q0.8125 -1.46875 2.1875 -2.359375q1.390625 -0.90625 3.015625 -0.90625zm12.015625 3.390625q-1.515625 0 -2.375 0.96875q-0.859375 0.953125 -0.984375 2.71875l6.6875 0q-0.03125 -1.765625 -0.921875 -2.71875q-0.890625 -0.96875 -2.40625 -0.96875zm0.671875 14.71875q-4.21875 0 -6.59375 -2.328125q-2.375 -2.328125 -2.375 -6.59375q0 -4.390625 2.1875 -6.78125q2.203125 -2.40625 6.078125 -2.40625q3.703125 0 5.765625 2.109375q2.0625 2.109375 2.0625 5.828125l0 2.3125l-11.265625 0q0.078125 2.03125 1.203125 3.171875q1.125 1.140625 3.15625 1.140625q1.578125 0 2.984375 -0.328125q1.40625 -0.328125 2.9375 -1.046875l0 3.6875q-1.25 0.625 -2.671875 0.921875q-1.421875 0.3125 -3.46875 0.3125zm29.390625 -19.453125q-2.734375 0 -4.234375 2.0625q-1.5 2.046875 -1.5 5.71875q0 7.640625 5.734375 7.640625q2.40625 0 5.828125 -1.203125l0 4.0625q-2.8125 1.171875 -6.28125 1.171875q-4.984375 0 -7.625 -3.015625q-2.640625 -3.03125 -2.640625 -8.6875q0 -3.5625 1.296875 -6.234375q1.296875 -2.6875 3.71875 -4.109375q2.4375 -1.4375 5.703125 -1.4375q3.328125 0 6.6875 1.609375l-1.5625 3.9375q-1.28125 -0.609375 -2.578125 -1.0625q-1.296875 -0.453125 -2.546875 -0.453125zm14.109375 10.375q0 2.59375 0.84375 3.921875q0.859375 1.328125 2.78125 1.328125q1.90625 0 2.734375 -1.3125q0.84375 -1.328125 0.84375 -3.9375q0 -2.59375 -0.84375 -3.890625q-0.84375 -1.296875 -2.765625 -1.296875q-1.90625 0 -2.75 1.296875q-0.84375 1.28125 -0.84375 3.890625zm12.078125 0q0 4.265625 -2.25 6.671875q-2.25 2.40625 -6.265625 2.40625q-2.515625 0 -4.4375 -1.09375q-1.921875 -1.109375 -2.953125 -3.171875q-1.03125 -2.0625 -1.03125 -4.8125q0 -4.28125 2.234375 -6.65625q2.234375 -2.375 6.28125 -2.375q2.515625 0 4.4375 1.09375q1.921875 1.09375 2.953125 3.140625q1.03125 2.046875 1.03125 4.796875zm19.578125 8.765625l-4.765625 0l0 -10.203125q0 -1.890625 -0.640625 -2.828125q-0.625 -0.953125 -1.984375 -0.953125q-1.828125 0 -2.65625 1.34375q-0.828125 1.34375 -0.828125 4.421875l0 8.21875l-4.765625 0l0 -17.46875l3.640625 0l0.640625 2.234375l0.265625 0q0.703125 -1.203125 2.03125 -1.875q1.328125 -0.6875 3.046875 -0.6875q3.921875 0 5.3125 2.5625l0.421875 0q0.703125 -1.21875 2.0625 -1.890625q1.375 -0.671875 3.09375 -0.671875q2.96875 0 4.484375 1.53125q1.53125 1.515625 1.53125 4.875l0 11.390625l-4.78125 0l0 -10.203125q0 -1.890625 -0.640625 -2.828125q-0.625 -0.953125 -1.984375 -0.953125q-1.75 0 -2.625 1.25q-0.859375 1.25 -0.859375 3.96875l0 8.765625zm25.375 0.3125q-3.078125 0 -4.828125 -2.234375l-0.25 0q0.25 2.1875 0.25 2.53125l0 7.078125l-4.765625 0l0 -25.15625l3.875 0l0.671875 2.265625l0.21875 0q1.671875 -2.59375 4.953125 -2.59375q3.09375 0 4.84375 2.390625q1.75 2.390625 1.75 6.640625q0 2.796875 -0.828125 4.859375q-0.8125 2.0625 -2.328125 3.140625q-1.515625 1.078125 -3.5625 1.078125zm-1.40625 -14.296875q-1.765625 0 -2.578125 1.09375q-0.8125 1.078125 -0.84375 3.578125l0 0.515625q0 2.8125 0.828125 4.03125q0.84375 1.21875 2.65625 1.21875q3.203125 0 3.203125 -5.28125q0 -2.578125 -0.796875 -3.859375q-0.78125 -1.296875 -2.46875 -1.296875zm11.859375 -8.0q0 -2.328125 2.59375 -2.328125q2.59375 0 2.59375 2.328125q0 1.109375 -0.65625 1.734375q-0.640625 0.609375 -1.9375 0.609375q-2.59375 0 -2.59375 -2.34375zm4.96875 21.984375l-4.765625 0l0 -17.46875l4.765625 0l0 17.46875zm9.765625 0l-4.765625 0l0 -24.3125l4.765625 0l0 24.3125zm12.234375 -14.40625q-1.515625 0 -2.375 0.96875q-0.859375 0.953125 -0.984375 2.71875l6.6875 0q-0.03125 -1.765625 -0.921875 -2.71875q-0.890625 -0.96875 -2.40625 -0.96875zm0.671875 14.71875q-4.21875 0 -6.59375 -2.328125q-2.375 -2.328125 -2.375 -6.59375q0 -4.390625 2.1875 -6.78125q2.203125 -2.40625 6.078125 -2.40625q3.703125 0 5.765625 2.109375q2.0625 2.109375 2.0625 5.828125l0 2.3125l-11.265625 0q0.078125 2.03125 1.203125 3.171875q1.125 1.140625 3.15625 1.140625q1.578125 0 2.984375 -0.328125q1.40625 -0.328125 2.9375 -1.046875l0 3.6875q-1.25 0.625 -2.671875 0.921875q-1.421875 0.3125 -3.46875 0.3125zm20.75 -18.109375q0.96875 0 1.609375 0.140625l-0.359375 4.46875q-0.578125 -0.15625 -1.40625 -0.15625q-2.28125 0 -3.5625 1.171875q-1.265625 1.171875 -1.265625 3.28125l0 8.890625l-4.765625 0l0 -17.46875l3.609375 0l0.703125 2.9375l0.234375 0q0.8125 -1.46875 2.1875 -2.359375q1.390625 -0.90625 3.015625 -0.90625z" fill-rule="nonzero"></path><path fill="#b4a7d6" d="m0 245.95276l655.2441 0l0 73.98425l-655.2441 0z" fill-rule="nonzero"></path><path fill="#ffffff" d="m157.93454 294.6649l-4.84375 0l0 -18.8125l-6.203125 0l0 -4.03125l17.25 0l0 4.03125l-6.203125 0l0 18.8125zm20.4375 0l-0.921875 -2.375l-0.125 0q-1.203125 1.515625 -2.484375 2.109375q-1.265625 0.578125 -3.3125 0.578125q-2.515625 0 -3.96875 -1.4375q-1.4375 -1.4375 -1.4375 -4.09375q0 -2.78125 1.9375 -4.09375q1.953125 -1.328125 5.875 -1.46875l3.03125 -0.09375l0 -0.765625q0 -2.65625 -2.71875 -2.65625q-2.09375 0 -4.921875 1.265625l-1.578125 -3.21875q3.015625 -1.578125 6.6875 -1.578125q3.515625 0 5.390625 1.53125q1.875 1.53125 1.875 4.65625l0 11.640625l-3.328125 0zm-1.40625 -8.09375l-1.84375 0.0625q-2.078125 0.0625 -3.09375 0.75q-1.015625 0.6875 -1.015625 2.09375q0 2.015625 2.3125 2.015625q1.65625 0 2.640625 -0.953125q1.0 -0.953125 1.0 -2.53125l0 -1.4375zm21.828125 2.90625q0 2.6875 -1.875 4.09375q-1.859375 1.40625 -5.578125 1.40625q-1.90625 0 -3.25 -0.265625q-1.34375 -0.25 -2.515625 -0.75l0 -3.9375q1.328125 0.625 2.984375 1.046875q1.671875 0.421875 2.9375 0.421875q2.59375 0 2.59375 -1.5q0 -0.5625 -0.34375 -0.90625q-0.34375 -0.359375 -1.1875 -0.796875q-0.84375 -0.453125 -2.25 -1.046875q-2.015625 -0.84375 -2.96875 -1.5625q-0.9375 -0.71875 -1.375 -1.640625q-0.421875 -0.9375 -0.421875 -2.296875q0 -2.328125 1.796875 -3.59375q1.8125 -1.28125 5.125 -1.28125q3.15625 0 6.140625 1.375l-1.4375 3.4375q-1.3125 -0.5625 -2.453125 -0.921875q-1.140625 -0.359375 -2.328125 -0.359375q-2.109375 0 -2.109375 1.140625q0 0.640625 0.671875 1.109375q0.6875 0.46875 2.984375 1.390625q2.046875 0.828125 3.0 1.546875q0.953125 0.71875 1.40625 1.65625q0.453125 0.9375 0.453125 2.234375zm8.296875 -4.3125l2.078125 -2.65625l4.890625 -5.3125l5.375 0l-6.9375 7.578125l7.359375 9.890625l-5.5 0l-5.03125 -7.078125l-2.046875 1.640625l0 5.4375l-4.765625 0l0 -24.3125l4.765625 0l0 10.84375l-0.25 3.96875l0.0625 0zm25.015625 -8.296875q0.96875 0 1.609375 0.140625l-0.359375 4.46875q-0.578125 -0.15625 -1.40625 -0.15625q-2.28125 0 -3.5625 1.171875q-1.265625 1.171875 -1.265625 3.28125l0 8.890625l-4.765625 0l0 -17.46875l3.609375 0l0.703125 2.9375l0.234375 0q0.8125 -1.46875 2.1875 -2.359375q1.390625 -0.90625 3.015625 -0.90625zm17.15625 17.796875l-0.640625 -2.234375l-0.25 0q-0.765625 1.21875 -2.171875 1.890625q-1.40625 0.65625 -3.203125 0.65625q-3.078125 0 -4.640625 -1.640625q-1.5625 -1.65625 -1.5625 -4.75l0 -11.390625l4.765625 0l0 10.203125q0 1.890625 0.671875 2.84375q0.671875 0.9375 2.140625 0.9375q2.0 0 2.890625 -1.328125q0.890625 -1.34375 0.890625 -4.4375l0 -8.21875l4.765625 0l0 17.46875l-3.65625 0zm24.78125 0l-4.765625 0l0 -10.203125q0 -1.890625 -0.671875 -2.828125q-0.671875 -0.953125 -2.140625 -0.953125q-2.0 0 -2.890625 1.34375q-0.890625 1.328125 -0.890625 4.421875l0 8.21875l-4.765625 0l0 -17.46875l3.640625 0l0.640625 2.234375l0.265625 0q0.796875 -1.265625 2.1875 -1.90625q1.40625 -0.65625 3.1875 -0.65625q3.046875 0 4.625 1.65625q1.578125 1.640625 1.578125 4.75l0 11.390625zm21.03125 0l-4.765625 0l0 -10.203125q0 -1.890625 -0.671875 -2.828125q-0.671875 -0.953125 -2.140625 -0.953125q-2.0 0 -2.890625 1.34375q-0.890625 1.328125 -0.890625 4.421875l0 8.21875l-4.765625 0l0 -17.46875l3.640625 0l0.640625 2.234375l0.265625 0q0.796875 -1.265625 2.1875 -1.90625q1.40625 -0.65625 3.1875 -0.65625q3.046875 0 4.625 1.65625q1.578125 1.640625 1.578125 4.75l0 11.390625zm12.140625 -14.40625q-1.515625 0 -2.375 0.96875q-0.859375 0.953125 -0.984375 2.71875l6.6875 0q-0.03125 -1.765625 -0.921875 -2.71875q-0.890625 -0.96875 -2.40625 -0.96875zm0.671875 14.71875q-4.21875 0 -6.59375 -2.328125q-2.375 -2.328125 -2.375 -6.59375q0 -4.390625 2.1875 -6.78125q2.203125 -2.40625 6.078125 -2.40625q3.703125 0 5.765625 2.109375q2.0625 2.109375 2.0625 5.828125l0 2.3125l-11.265625 0q0.078125 2.03125 1.203125 3.171875q1.125 1.140625 3.15625 1.140625q1.578125 0 2.984375 -0.328125q1.40625 -0.328125 2.9375 -1.046875l0 3.6875q-1.25 0.625 -2.671875 0.921875q-1.421875 0.3125 -3.46875 0.3125zm20.75 -18.109375q0.96875 0 1.609375 0.140625l-0.359375 4.46875q-0.578125 -0.15625 -1.40625 -0.15625q-2.28125 0 -3.5625 1.171875q-1.265625 1.171875 -1.265625 3.28125l0 8.890625l-4.765625 0l0 -17.46875l3.609375 0l0.703125 2.9375l0.234375 0q0.8125 -1.46875 2.1875 -2.359375q1.390625 -0.90625 3.015625 -0.90625zm11.875 9.03125q0 -4.140625 1.203125 -7.75q1.21875 -3.609375 3.5 -6.328125l3.90625 0q-2.203125 3.015625 -3.328125 6.625q-1.125 3.609375 -1.125 7.421875q0 3.828125 1.140625 7.40625q1.15625 3.5625 3.28125 6.453125l-3.875 0q-2.296875 -2.65625 -3.5 -6.203125q-1.203125 -3.546875 -1.203125 -7.625zm19.296875 -5.640625q-1.515625 0 -2.375 0.96875q-0.859375 0.953125 -0.984375 2.71875l6.6875 0q-0.03125 -1.765625 -0.921875 -2.71875q-0.890625 -0.96875 -2.40625 -0.96875zm0.671875 14.71875q-4.21875 0 -6.59375 -2.328125q-2.375 -2.328125 -2.375 -6.59375q0 -4.390625 2.1875 -6.78125q2.203125 -2.40625 6.078125 -2.40625q3.703125 0 5.765625 2.109375q2.0625 2.109375 2.0625 5.828125l0 2.3125l-11.265625 0q0.078125 2.03125 1.203125 3.171875q1.125 1.140625 3.15625 1.140625q1.578125 0 2.984375 -0.328125q1.40625 -0.328125 2.9375 -1.046875l0 3.6875q-1.25 0.625 -2.671875 0.921875q-1.421875 0.3125 -3.46875 0.3125zm26.203125 -17.78125l0 2.421875l-2.734375 0.703125q0.75 1.171875 0.75 2.625q0 2.8125 -1.96875 4.390625q-1.953125 1.5625 -5.4375 1.5625l-0.859375 -0.046875l-0.703125 -0.078125q-0.734375 0.5625 -0.734375 1.25q0 1.03125 2.625 1.03125l2.96875 0q2.875 0 4.375 1.234375q1.515625 1.234375 1.515625 3.625q0 3.0625 -2.5625 4.75q-2.546875 1.6875 -7.328125 1.6875q-3.65625 0 -5.59375 -1.28125q-1.921875 -1.265625 -1.921875 -3.5625q0 -1.578125 0.984375 -2.640625q0.984375 -1.0625 2.890625 -1.515625q-0.734375 -0.3125 -1.28125 -1.015625q-0.546875 -0.71875 -0.546875 -1.515625q0 -1.0 0.578125 -1.65625q0.578125 -0.671875 1.671875 -1.3125q-1.375 -0.59375 -2.1875 -1.90625q-0.796875 -1.3125 -0.796875 -3.09375q0 -2.859375 1.859375 -4.421875q1.859375 -1.5625 5.3125 -1.5625q0.734375 0 1.734375 0.140625q1.015625 0.125 1.296875 0.1875l6.09375 0zm-13.484375 19.9375q0 0.984375 0.9375 1.546875q0.953125 0.5625 2.65625 0.5625q2.5625 0 4.015625 -0.703125q1.453125 -0.703125 1.453125 -1.921875q0 -0.984375 -0.859375 -1.359375q-0.859375 -0.375 -2.65625 -0.375l-2.46875 0q-1.3125 0 -2.203125 0.609375q-0.875 0.625 -0.875 1.640625zm1.734375 -14.21875q0 1.421875 0.640625 2.25q0.65625 0.828125 1.984375 0.828125q1.34375 0 1.96875 -0.828125q0.625 -0.828125 0.625 -2.25q0 -3.15625 -2.59375 -3.15625q-2.625 0 -2.625 3.15625zm13.953125 9.515625q0 -1.3125 0.703125 -1.984375q0.703125 -0.671875 2.046875 -0.671875q1.296875 0 2.0 0.6875q0.71875 0.6875 0.71875 1.96875q0 1.234375 -0.71875 1.953125q-0.71875 0.703125 -2.0 0.703125q-1.3125 0 -2.03125 -0.6875q-0.71875 -0.703125 -0.71875 -1.96875zm27.15625 -10.59375l9.0625 0l0 11.84375q-2.203125 0.71875 -4.15625 1.0q-1.9375 0.296875 -3.96875 0.296875q-5.171875 0 -7.90625 -3.03125q-2.71875 -3.046875 -2.71875 -8.734375q0 -5.53125 3.15625 -8.625q3.171875 -3.09375 8.78125 -3.09375q3.515625 0 6.78125 1.40625l-1.609375 3.875q-2.5 -1.25 -5.203125 -1.25q-3.140625 0 -5.03125 2.109375q-1.890625 2.109375 -1.890625 5.671875q0 3.71875 1.515625 5.6875q1.53125 1.953125 4.4375 1.953125q1.515625 0 3.078125 -0.3125l0 -4.765625l-4.328125 0l0 -4.03125zm23.875 -4.96875q0.96875 0 1.609375 0.140625l-0.359375 4.46875q-0.578125 -0.15625 -1.40625 -0.15625q-2.28125 0 -3.5625 1.171875q-1.265625 1.171875 -1.265625 3.28125l0 8.890625l-4.765625 0l0 -17.46875l3.609375 0l0.703125 2.9375l0.234375 0q0.8125 -1.46875 2.1875 -2.359375q1.390625 -0.90625 3.015625 -0.90625zm17.15625 17.796875l-0.640625 -2.234375l-0.25 0q-0.765625 1.21875 -2.171875 1.890625q-1.40625 0.65625 -3.203125 0.65625q-3.078125 0 -4.640625 -1.640625q-1.5625 -1.65625 -1.5625 -4.75l0 -11.390625l4.765625 0l0 10.203125q0 1.890625 0.671875 2.84375q0.671875 0.9375 2.140625 0.9375q2.0 0 2.890625 -1.328125q0.890625 -1.34375 0.890625 -4.4375l0 -8.21875l4.765625 0l0 17.46875l-3.65625 0zm24.78125 0l-4.765625 0l0 -10.203125q0 -1.890625 -0.671875 -2.828125q-0.671875 -0.953125 -2.140625 -0.953125q-2.0 0 -2.890625 1.34375q-0.890625 1.328125 -0.890625 4.421875l0 8.21875l-4.765625 0l0 -17.46875l3.640625 0l0.640625 2.234375l0.265625 0q0.796875 -1.265625 2.1875 -1.90625q1.40625 -0.65625 3.1875 -0.65625q3.046875 0 4.625 1.65625q1.578125 1.640625 1.578125 4.75l0 11.390625zm12.265625 -3.484375q1.25 0 3.0 -0.546875l0 3.546875q-1.78125 0.796875 -4.375 0.796875q-2.859375 0 -4.171875 -1.4375q-1.296875 -1.453125 -1.296875 -4.34375l0 -8.421875l-2.28125 0l0 -2.015625l2.625 -1.59375l1.375 -3.6875l3.046875 0l0 3.71875l4.890625 0l0 3.578125l-4.890625 0l0 8.421875q0 1.015625 0.5625 1.5q0.578125 0.484375 1.515625 0.484375zm13.59375 -5.28125q0 4.109375 -1.21875 7.65625q-1.203125 3.546875 -3.484375 6.171875l-3.875 0q2.109375 -2.875 3.265625 -6.4375q1.15625 -3.578125 1.15625 -7.421875q0 -3.8125 -1.125 -7.421875q-1.125 -3.609375 -3.328125 -6.625l3.90625 0q2.296875 2.734375 3.5 6.359375q1.203125 3.609375 1.203125 7.71875z" fill-rule="nonzero"></path></g></svg>

